<mxfile host="app.diagrams.net" agent="Mozilla/5.0 (Windows NT 10.0; Win64; x64; rv:129.0) Gecko/20100101 Firefox/129.0" version="24.7.8">
  <diagram name="1 oldal" id="yYyyybpztoM18HDb7qPN">
    <mxGraphModel dx="1674" dy="774" grid="1" gridSize="10" guides="1" tooltips="1" connect="1" arrows="1" fold="1" page="1" pageScale="1" pageWidth="827" pageHeight="1169" math="0" shadow="0">
      <root>
        <mxCell id="0" />
        <mxCell id="1" parent="0" />
        <mxCell id="ZnTsEXRW03XCHpaP1GZI-1" value="Organization" style="swimlane;childLayout=stackLayout;horizontal=1;startSize=50;horizontalStack=0;rounded=1;fontSize=14;fontStyle=0;strokeWidth=2;resizeParent=0;resizeLast=1;shadow=0;dashed=0;align=center;arcSize=4;whiteSpace=wrap;html=1;" vertex="1" parent="1">
          <mxGeometry x="480" y="110" width="160" height="130" as="geometry" />
        </mxCell>
        <mxCell id="ZnTsEXRW03XCHpaP1GZI-2" value="+Id&lt;br&gt;+OrganizationCategoriId&lt;div&gt;&lt;br/&gt;&lt;/div&gt;" style="align=left;strokeColor=none;fillColor=none;spacingLeft=4;fontSize=12;verticalAlign=top;resizable=0;rotatable=0;part=1;html=1;" vertex="1" parent="ZnTsEXRW03XCHpaP1GZI-1">
          <mxGeometry y="50" width="160" height="80" as="geometry" />
        </mxCell>
        <mxCell id="ZnTsEXRW03XCHpaP1GZI-3" value="OrganizationCategory" style="swimlane;childLayout=stackLayout;horizontal=1;startSize=50;horizontalStack=0;rounded=1;fontSize=14;fontStyle=0;strokeWidth=2;resizeParent=0;resizeLast=1;shadow=0;dashed=0;align=center;arcSize=4;whiteSpace=wrap;html=1;" vertex="1" parent="1">
          <mxGeometry x="30" y="120" width="160" height="120" as="geometry" />
        </mxCell>
        <mxCell id="ZnTsEXRW03XCHpaP1GZI-4" value="+Id&lt;br&gt;+Name" style="align=left;strokeColor=none;fillColor=none;spacingLeft=4;fontSize=12;verticalAlign=top;resizable=0;rotatable=0;part=1;html=1;" vertex="1" parent="ZnTsEXRW03XCHpaP1GZI-3">
          <mxGeometry y="50" width="160" height="70" as="geometry" />
        </mxCell>
        <mxCell id="ZnTsEXRW03XCHpaP1GZI-5" value="OrganizationCategory" style="shape=rhombus;perimeter=rhombusPerimeter;whiteSpace=wrap;html=1;align=center;" vertex="1" parent="1">
          <mxGeometry x="234" y="160" width="180" height="60" as="geometry" />
        </mxCell>
        <mxCell id="ZnTsEXRW03XCHpaP1GZI-9" value="" style="endArrow=none;html=1;rounded=0;entryX=0;entryY=0.5;entryDx=0;entryDy=0;" edge="1" parent="1" target="ZnTsEXRW03XCHpaP1GZI-5">
          <mxGeometry relative="1" as="geometry">
            <mxPoint x="190" y="190" as="sourcePoint" />
            <mxPoint x="280" y="190" as="targetPoint" />
          </mxGeometry>
        </mxCell>
        <mxCell id="ZnTsEXRW03XCHpaP1GZI-10" value="1" style="resizable=0;html=1;whiteSpace=wrap;align=left;verticalAlign=bottom;" connectable="0" vertex="1" parent="ZnTsEXRW03XCHpaP1GZI-9">
          <mxGeometry x="-1" relative="1" as="geometry" />
        </mxCell>
        <mxCell id="ZnTsEXRW03XCHpaP1GZI-12" value="" style="endArrow=none;html=1;rounded=0;entryX=-0.011;entryY=0.389;entryDx=0;entryDy=0;entryPerimeter=0;exitX=1;exitY=0.5;exitDx=0;exitDy=0;" edge="1" parent="1" source="ZnTsEXRW03XCHpaP1GZI-5" target="ZnTsEXRW03XCHpaP1GZI-2">
          <mxGeometry relative="1" as="geometry">
            <mxPoint x="440" y="191" as="sourcePoint" />
            <mxPoint x="480" y="310" as="targetPoint" />
          </mxGeometry>
        </mxCell>
        <mxCell id="ZnTsEXRW03XCHpaP1GZI-13" value="" style="resizable=0;html=1;whiteSpace=wrap;align=left;verticalAlign=bottom;" connectable="0" vertex="1" parent="ZnTsEXRW03XCHpaP1GZI-12">
          <mxGeometry x="-1" relative="1" as="geometry" />
        </mxCell>
        <mxCell id="ZnTsEXRW03XCHpaP1GZI-14" value="N" style="resizable=0;html=1;whiteSpace=wrap;align=right;verticalAlign=bottom;" connectable="0" vertex="1" parent="ZnTsEXRW03XCHpaP1GZI-12">
          <mxGeometry x="1" relative="1" as="geometry" />
        </mxCell>
        <mxCell id="ZnTsEXRW03XCHpaP1GZI-15" value="OrganizationProgram" style="swimlane;childLayout=stackLayout;horizontal=1;startSize=50;horizontalStack=0;rounded=1;fontSize=14;fontStyle=0;strokeWidth=2;resizeParent=0;resizeLast=1;shadow=0;dashed=0;align=center;arcSize=4;whiteSpace=wrap;html=1;" vertex="1" parent="1">
          <mxGeometry x="430" y="370" width="150" height="120" as="geometry" />
        </mxCell>
        <mxCell id="ZnTsEXRW03XCHpaP1GZI-16" value="+Id&lt;br&gt;+ProgramOwnerId&lt;br&gt;+AddressId" style="align=left;strokeColor=none;fillColor=none;spacingLeft=4;fontSize=12;verticalAlign=top;resizable=0;rotatable=0;part=1;html=1;" vertex="1" parent="ZnTsEXRW03XCHpaP1GZI-15">
          <mxGeometry y="50" width="150" height="70" as="geometry" />
        </mxCell>
        <mxCell id="ZnTsEXRW03XCHpaP1GZI-17" value="Address" style="swimlane;childLayout=stackLayout;horizontal=1;startSize=50;horizontalStack=0;rounded=1;fontSize=14;fontStyle=0;strokeWidth=2;resizeParent=0;resizeLast=1;shadow=0;dashed=0;align=center;arcSize=4;whiteSpace=wrap;html=1;" vertex="1" parent="1">
          <mxGeometry x="30" y="340" width="160" height="120" as="geometry" />
        </mxCell>
        <mxCell id="ZnTsEXRW03XCHpaP1GZI-18" value="+Id&lt;br&gt;+Name" style="align=left;strokeColor=none;fillColor=none;spacingLeft=4;fontSize=12;verticalAlign=top;resizable=0;rotatable=0;part=1;html=1;" vertex="1" parent="ZnTsEXRW03XCHpaP1GZI-17">
          <mxGeometry y="50" width="160" height="70" as="geometry" />
        </mxCell>
        <mxCell id="ZnTsEXRW03XCHpaP1GZI-19" value="OrganizationAddress" style="shape=rhombus;perimeter=rhombusPerimeter;whiteSpace=wrap;html=1;align=center;" vertex="1" parent="1">
          <mxGeometry x="250" y="400" width="130" height="60" as="geometry" />
        </mxCell>
        <mxCell id="ZnTsEXRW03XCHpaP1GZI-20" value="" style="endArrow=none;html=1;rounded=0;entryX=0;entryY=0.5;entryDx=0;entryDy=0;" edge="1" parent="1" target="ZnTsEXRW03XCHpaP1GZI-19" source="ZnTsEXRW03XCHpaP1GZI-18">
          <mxGeometry relative="1" as="geometry">
            <mxPoint x="220" y="650" as="sourcePoint" />
            <mxPoint x="290" y="650" as="targetPoint" />
          </mxGeometry>
        </mxCell>
        <mxCell id="ZnTsEXRW03XCHpaP1GZI-21" value="1" style="resizable=0;html=1;whiteSpace=wrap;align=left;verticalAlign=bottom;" connectable="0" vertex="1" parent="ZnTsEXRW03XCHpaP1GZI-20">
          <mxGeometry x="-1" relative="1" as="geometry" />
        </mxCell>
        <mxCell id="ZnTsEXRW03XCHpaP1GZI-22" value="" style="endArrow=none;html=1;rounded=0;exitX=0.952;exitY=0.513;exitDx=0;exitDy=0;exitPerimeter=0;" edge="1" parent="1" source="ZnTsEXRW03XCHpaP1GZI-19" target="ZnTsEXRW03XCHpaP1GZI-16">
          <mxGeometry relative="1" as="geometry">
            <mxPoint x="330" y="770" as="sourcePoint" />
            <mxPoint x="458" y="651" as="targetPoint" />
          </mxGeometry>
        </mxCell>
        <mxCell id="ZnTsEXRW03XCHpaP1GZI-23" value="" style="resizable=0;html=1;whiteSpace=wrap;align=left;verticalAlign=bottom;" connectable="0" vertex="1" parent="ZnTsEXRW03XCHpaP1GZI-22">
          <mxGeometry x="-1" relative="1" as="geometry" />
        </mxCell>
        <mxCell id="ZnTsEXRW03XCHpaP1GZI-24" value="N" style="resizable=0;html=1;whiteSpace=wrap;align=right;verticalAlign=bottom;" connectable="0" vertex="1" parent="ZnTsEXRW03XCHpaP1GZI-22">
          <mxGeometry x="1" relative="1" as="geometry">
            <mxPoint x="-14" y="-2" as="offset" />
          </mxGeometry>
        </mxCell>
        <mxCell id="ZnTsEXRW03XCHpaP1GZI-27" value="PublicSpace" style="swimlane;childLayout=stackLayout;horizontal=1;startSize=50;horizontalStack=0;rounded=1;fontSize=14;fontStyle=0;strokeWidth=2;resizeParent=0;resizeLast=1;shadow=0;dashed=0;align=center;arcSize=4;whiteSpace=wrap;html=1;" vertex="1" parent="1">
          <mxGeometry x="30" y="630" width="160" height="120" as="geometry" />
        </mxCell>
        <mxCell id="ZnTsEXRW03XCHpaP1GZI-28" value="+Id&lt;br&gt;+Name" style="align=left;strokeColor=none;fillColor=none;spacingLeft=4;fontSize=12;verticalAlign=top;resizable=0;rotatable=0;part=1;html=1;" vertex="1" parent="ZnTsEXRW03XCHpaP1GZI-27">
          <mxGeometry y="50" width="160" height="70" as="geometry" />
        </mxCell>
        <mxCell id="ZnTsEXRW03XCHpaP1GZI-30" value="OrganizationCategory" style="shape=rhombus;perimeter=rhombusPerimeter;whiteSpace=wrap;html=1;align=center;" vertex="1" parent="1">
          <mxGeometry x="30" y="495" width="180" height="60" as="geometry" />
        </mxCell>
        <mxCell id="ZnTsEXRW03XCHpaP1GZI-31" value="" style="endArrow=none;html=1;rounded=0;entryX=0.5;entryY=1;entryDx=0;entryDy=0;" edge="1" parent="1" target="ZnTsEXRW03XCHpaP1GZI-30" source="ZnTsEXRW03XCHpaP1GZI-27">
          <mxGeometry relative="1" as="geometry">
            <mxPoint x="110" y="760" as="sourcePoint" />
            <mxPoint x="200" y="760" as="targetPoint" />
          </mxGeometry>
        </mxCell>
        <mxCell id="ZnTsEXRW03XCHpaP1GZI-32" value="1" style="resizable=0;html=1;whiteSpace=wrap;align=left;verticalAlign=bottom;" connectable="0" vertex="1" parent="ZnTsEXRW03XCHpaP1GZI-31">
          <mxGeometry x="-1" relative="1" as="geometry" />
        </mxCell>
        <mxCell id="ZnTsEXRW03XCHpaP1GZI-33" value="" style="endArrow=none;html=1;rounded=0;exitX=0.5;exitY=0;exitDx=0;exitDy=0;entryX=0.563;entryY=0.988;entryDx=0;entryDy=0;entryPerimeter=0;" edge="1" parent="1" source="ZnTsEXRW03XCHpaP1GZI-30" target="ZnTsEXRW03XCHpaP1GZI-18">
          <mxGeometry relative="1" as="geometry">
            <mxPoint x="240" y="880" as="sourcePoint" />
            <mxPoint x="240" y="470" as="targetPoint" />
          </mxGeometry>
        </mxCell>
        <mxCell id="ZnTsEXRW03XCHpaP1GZI-34" value="" style="resizable=0;html=1;whiteSpace=wrap;align=left;verticalAlign=bottom;" connectable="0" vertex="1" parent="ZnTsEXRW03XCHpaP1GZI-33">
          <mxGeometry x="-1" relative="1" as="geometry" />
        </mxCell>
        <mxCell id="ZnTsEXRW03XCHpaP1GZI-35" value="N" style="resizable=0;html=1;whiteSpace=wrap;align=right;verticalAlign=bottom;" connectable="0" vertex="1" parent="ZnTsEXRW03XCHpaP1GZI-33">
          <mxGeometry x="1" relative="1" as="geometry">
            <mxPoint y="18" as="offset" />
          </mxGeometry>
        </mxCell>
        <mxCell id="ZnTsEXRW03XCHpaP1GZI-36" value="RegisteredUser" style="swimlane;childLayout=stackLayout;horizontal=1;startSize=50;horizontalStack=0;rounded=1;fontSize=14;fontStyle=0;strokeWidth=2;resizeParent=0;resizeLast=1;shadow=0;dashed=0;align=center;arcSize=4;whiteSpace=wrap;html=1;" vertex="1" parent="1">
          <mxGeometry x="530" y="980" width="160" height="120" as="geometry" />
        </mxCell>
        <mxCell id="ZnTsEXRW03XCHpaP1GZI-37" value="+Id&lt;br&gt;&lt;div&gt;+FirstName&lt;/div&gt;&lt;div&gt;+LastName&lt;br&gt;&lt;/div&gt;" style="align=left;strokeColor=none;fillColor=none;spacingLeft=4;fontSize=12;verticalAlign=top;resizable=0;rotatable=0;part=1;html=1;" vertex="1" parent="ZnTsEXRW03XCHpaP1GZI-36">
          <mxGeometry y="50" width="160" height="70" as="geometry" />
        </mxCell>
        <mxCell id="ZnTsEXRW03XCHpaP1GZI-39" value="OrganizationOwner" style="shape=rhombus;perimeter=rhombusPerimeter;whiteSpace=wrap;html=1;align=center;" vertex="1" parent="1">
          <mxGeometry x="430" y="270" width="130" height="60" as="geometry" />
        </mxCell>
        <mxCell id="ZnTsEXRW03XCHpaP1GZI-40" value="" style="endArrow=none;html=1;rounded=0;entryX=0.5;entryY=0;entryDx=0;entryDy=0;exitX=0.5;exitY=1;exitDx=0;exitDy=0;" edge="1" parent="1" target="ZnTsEXRW03XCHpaP1GZI-39" source="ZnTsEXRW03XCHpaP1GZI-2">
          <mxGeometry relative="1" as="geometry">
            <mxPoint x="454" y="270" as="sourcePoint" />
            <mxPoint x="389" y="280" as="targetPoint" />
          </mxGeometry>
        </mxCell>
        <mxCell id="ZnTsEXRW03XCHpaP1GZI-41" value="1" style="resizable=0;html=1;whiteSpace=wrap;align=left;verticalAlign=bottom;" connectable="0" vertex="1" parent="ZnTsEXRW03XCHpaP1GZI-40">
          <mxGeometry x="-1" relative="1" as="geometry">
            <mxPoint x="-20" y="30" as="offset" />
          </mxGeometry>
        </mxCell>
        <mxCell id="ZnTsEXRW03XCHpaP1GZI-42" value="" style="endArrow=none;html=1;rounded=0;exitX=0.5;exitY=1;exitDx=0;exitDy=0;entryX=0.448;entryY=0.007;entryDx=0;entryDy=0;entryPerimeter=0;" edge="1" parent="1" source="ZnTsEXRW03XCHpaP1GZI-39" target="ZnTsEXRW03XCHpaP1GZI-15">
          <mxGeometry relative="1" as="geometry">
            <mxPoint x="570" y="440" as="sourcePoint" />
            <mxPoint x="520" y="550" as="targetPoint" />
          </mxGeometry>
        </mxCell>
        <mxCell id="ZnTsEXRW03XCHpaP1GZI-43" value="" style="resizable=0;html=1;whiteSpace=wrap;align=left;verticalAlign=bottom;" connectable="0" vertex="1" parent="ZnTsEXRW03XCHpaP1GZI-42">
          <mxGeometry x="-1" relative="1" as="geometry" />
        </mxCell>
        <mxCell id="ZnTsEXRW03XCHpaP1GZI-44" value="N" style="resizable=0;html=1;whiteSpace=wrap;align=right;verticalAlign=bottom;" connectable="0" vertex="1" parent="ZnTsEXRW03XCHpaP1GZI-42">
          <mxGeometry x="1" relative="1" as="geometry" />
        </mxCell>
        <mxCell id="ZnTsEXRW03XCHpaP1GZI-57" value="OrganizationAdminUser" style="swimlane;childLayout=stackLayout;horizontal=1;startSize=50;horizontalStack=0;rounded=1;fontSize=14;fontStyle=0;strokeWidth=2;resizeParent=0;resizeLast=1;shadow=0;dashed=0;align=center;arcSize=4;whiteSpace=wrap;html=1;" vertex="1" parent="1">
          <mxGeometry x="650" y="370" width="150" height="120" as="geometry" />
        </mxCell>
        <mxCell id="ZnTsEXRW03XCHpaP1GZI-58" value="+Id&lt;br&gt;+ProgramOwnerId&lt;br&gt;+AddressId" style="align=left;strokeColor=none;fillColor=none;spacingLeft=4;fontSize=12;verticalAlign=top;resizable=0;rotatable=0;part=1;html=1;" vertex="1" parent="ZnTsEXRW03XCHpaP1GZI-57">
          <mxGeometry y="50" width="150" height="70" as="geometry" />
        </mxCell>
        <mxCell id="ZnTsEXRW03XCHpaP1GZI-59" value="OrganizationOwner" style="shape=rhombus;perimeter=rhombusPerimeter;whiteSpace=wrap;html=1;align=center;" vertex="1" parent="1">
          <mxGeometry x="610" y="270" width="130" height="60" as="geometry" />
        </mxCell>
        <mxCell id="ZnTsEXRW03XCHpaP1GZI-60" value="" style="endArrow=none;html=1;rounded=0;entryX=0.5;entryY=0;entryDx=0;entryDy=0;exitX=0.5;exitY=1;exitDx=0;exitDy=0;" edge="1" parent="1" target="ZnTsEXRW03XCHpaP1GZI-59" source="ZnTsEXRW03XCHpaP1GZI-2">
          <mxGeometry relative="1" as="geometry">
            <mxPoint x="600" y="181" as="sourcePoint" />
            <mxPoint x="659" y="180" as="targetPoint" />
          </mxGeometry>
        </mxCell>
        <mxCell id="ZnTsEXRW03XCHpaP1GZI-61" value="1" style="resizable=0;html=1;whiteSpace=wrap;align=left;verticalAlign=bottom;" connectable="0" vertex="1" parent="ZnTsEXRW03XCHpaP1GZI-60">
          <mxGeometry x="-1" relative="1" as="geometry">
            <mxPoint x="-20" y="30" as="offset" />
          </mxGeometry>
        </mxCell>
        <mxCell id="ZnTsEXRW03XCHpaP1GZI-62" value="" style="endArrow=none;html=1;rounded=0;exitX=0.5;exitY=1;exitDx=0;exitDy=0;entryX=0.5;entryY=0;entryDx=0;entryDy=0;" edge="1" parent="1" source="ZnTsEXRW03XCHpaP1GZI-59" target="ZnTsEXRW03XCHpaP1GZI-57">
          <mxGeometry relative="1" as="geometry">
            <mxPoint x="840" y="340" as="sourcePoint" />
            <mxPoint x="718" y="360" as="targetPoint" />
          </mxGeometry>
        </mxCell>
        <mxCell id="ZnTsEXRW03XCHpaP1GZI-63" value="" style="resizable=0;html=1;whiteSpace=wrap;align=left;verticalAlign=bottom;" connectable="0" vertex="1" parent="ZnTsEXRW03XCHpaP1GZI-62">
          <mxGeometry x="-1" relative="1" as="geometry" />
        </mxCell>
        <mxCell id="ZnTsEXRW03XCHpaP1GZI-64" value="N" style="resizable=0;html=1;whiteSpace=wrap;align=right;verticalAlign=bottom;" connectable="0" vertex="1" parent="ZnTsEXRW03XCHpaP1GZI-62">
          <mxGeometry x="1" relative="1" as="geometry">
            <mxPoint y="-10" as="offset" />
          </mxGeometry>
        </mxCell>
        <mxCell id="ZnTsEXRW03XCHpaP1GZI-66" value="Partitipation" style="shape=rhombus;perimeter=rhombusPerimeter;whiteSpace=wrap;html=1;align=center;" vertex="1" parent="1">
          <mxGeometry x="660" y="720" width="130" height="60" as="geometry" />
        </mxCell>
        <mxCell id="ZnTsEXRW03XCHpaP1GZI-67" value="" style="endArrow=none;html=1;rounded=0;entryX=0.5;entryY=0;entryDx=0;entryDy=0;" edge="1" parent="1" target="ZnTsEXRW03XCHpaP1GZI-66" source="ZnTsEXRW03XCHpaP1GZI-58">
          <mxGeometry relative="1" as="geometry">
            <mxPoint x="738" y="490" as="sourcePoint" />
            <mxPoint x="774.85" y="598.97" as="targetPoint" />
          </mxGeometry>
        </mxCell>
        <mxCell id="ZnTsEXRW03XCHpaP1GZI-68" value="1" style="resizable=0;html=1;whiteSpace=wrap;align=left;verticalAlign=bottom;" connectable="0" vertex="1" parent="ZnTsEXRW03XCHpaP1GZI-67">
          <mxGeometry x="-1" relative="1" as="geometry" />
        </mxCell>
        <mxCell id="ZnTsEXRW03XCHpaP1GZI-69" value="" style="endArrow=none;html=1;rounded=0;exitX=0.5;exitY=1;exitDx=0;exitDy=0;entryX=0.931;entryY=0;entryDx=0;entryDy=0;entryPerimeter=0;" edge="1" parent="1" source="ZnTsEXRW03XCHpaP1GZI-66" target="ZnTsEXRW03XCHpaP1GZI-36">
          <mxGeometry relative="1" as="geometry">
            <mxPoint x="814.85" y="718.97" as="sourcePoint" />
            <mxPoint x="547.0799999999999" y="662.04" as="targetPoint" />
          </mxGeometry>
        </mxCell>
        <mxCell id="ZnTsEXRW03XCHpaP1GZI-70" value="" style="resizable=0;html=1;whiteSpace=wrap;align=left;verticalAlign=bottom;" connectable="0" vertex="1" parent="ZnTsEXRW03XCHpaP1GZI-69">
          <mxGeometry x="-1" relative="1" as="geometry" />
        </mxCell>
        <mxCell id="ZnTsEXRW03XCHpaP1GZI-71" value="N" style="resizable=0;html=1;whiteSpace=wrap;align=right;verticalAlign=bottom;" connectable="0" vertex="1" parent="ZnTsEXRW03XCHpaP1GZI-69">
          <mxGeometry x="1" relative="1" as="geometry">
            <mxPoint y="-10" as="offset" />
          </mxGeometry>
        </mxCell>
        <mxCell id="ZnTsEXRW03XCHpaP1GZI-74" value="Partitipation" style="swimlane;childLayout=stackLayout;horizontal=1;startSize=50;horizontalStack=0;rounded=1;fontSize=14;fontStyle=0;strokeWidth=2;resizeParent=0;resizeLast=1;shadow=0;dashed=0;align=center;arcSize=4;whiteSpace=wrap;html=1;" vertex="1" parent="1">
          <mxGeometry x="350" y="640" width="150" height="120" as="geometry" />
        </mxCell>
        <mxCell id="ZnTsEXRW03XCHpaP1GZI-75" value="+Id&lt;br&gt;+ProgramOwnerId&lt;br&gt;+AddressId" style="align=left;strokeColor=none;fillColor=none;spacingLeft=4;fontSize=12;verticalAlign=top;resizable=0;rotatable=0;part=1;html=1;" vertex="1" parent="ZnTsEXRW03XCHpaP1GZI-74">
          <mxGeometry y="50" width="150" height="70" as="geometry" />
        </mxCell>
        <mxCell id="ZnTsEXRW03XCHpaP1GZI-76" value="OrganizationOwner" style="shape=rhombus;perimeter=rhombusPerimeter;whiteSpace=wrap;html=1;align=center;" vertex="1" parent="1">
          <mxGeometry x="414" y="554.5" width="130" height="60" as="geometry" />
        </mxCell>
        <mxCell id="ZnTsEXRW03XCHpaP1GZI-77" value="" style="endArrow=none;html=1;rounded=0;entryX=0.5;entryY=0;entryDx=0;entryDy=0;" edge="1" parent="1" target="ZnTsEXRW03XCHpaP1GZI-76" source="ZnTsEXRW03XCHpaP1GZI-16">
          <mxGeometry relative="1" as="geometry">
            <mxPoint x="510" y="540" as="sourcePoint" />
            <mxPoint x="339" y="580" as="targetPoint" />
          </mxGeometry>
        </mxCell>
        <mxCell id="ZnTsEXRW03XCHpaP1GZI-78" value="1" style="resizable=0;html=1;whiteSpace=wrap;align=left;verticalAlign=bottom;" connectable="0" vertex="1" parent="ZnTsEXRW03XCHpaP1GZI-77">
          <mxGeometry x="-1" relative="1" as="geometry">
            <mxPoint x="-20" y="30" as="offset" />
          </mxGeometry>
        </mxCell>
        <mxCell id="ZnTsEXRW03XCHpaP1GZI-79" value="" style="endArrow=none;html=1;rounded=0;exitX=0.5;exitY=1;exitDx=0;exitDy=0;entryX=0.448;entryY=0.007;entryDx=0;entryDy=0;entryPerimeter=0;" edge="1" parent="1" source="ZnTsEXRW03XCHpaP1GZI-76" target="ZnTsEXRW03XCHpaP1GZI-74">
          <mxGeometry relative="1" as="geometry">
            <mxPoint x="520" y="740" as="sourcePoint" />
            <mxPoint x="470" y="850" as="targetPoint" />
          </mxGeometry>
        </mxCell>
        <mxCell id="ZnTsEXRW03XCHpaP1GZI-80" value="" style="resizable=0;html=1;whiteSpace=wrap;align=left;verticalAlign=bottom;" connectable="0" vertex="1" parent="ZnTsEXRW03XCHpaP1GZI-79">
          <mxGeometry x="-1" relative="1" as="geometry" />
        </mxCell>
        <mxCell id="ZnTsEXRW03XCHpaP1GZI-81" value="N" style="resizable=0;html=1;whiteSpace=wrap;align=right;verticalAlign=bottom;" connectable="0" vertex="1" parent="ZnTsEXRW03XCHpaP1GZI-79">
          <mxGeometry x="1" relative="1" as="geometry" />
        </mxCell>
        <mxCell id="ZnTsEXRW03XCHpaP1GZI-83" value="Partitipation" style="shape=rhombus;perimeter=rhombusPerimeter;whiteSpace=wrap;html=1;align=center;" vertex="1" parent="1">
          <mxGeometry x="310" y="820" width="130" height="60" as="geometry" />
        </mxCell>
        <mxCell id="ZnTsEXRW03XCHpaP1GZI-84" value="" style="endArrow=none;html=1;rounded=0;entryX=0.438;entryY=0.983;entryDx=0;entryDy=0;entryPerimeter=0;exitX=0.419;exitY=-0.025;exitDx=0;exitDy=0;exitPerimeter=0;" edge="1" parent="1" target="ZnTsEXRW03XCHpaP1GZI-83" source="ZnTsEXRW03XCHpaP1GZI-36">
          <mxGeometry relative="1" as="geometry">
            <mxPoint x="370" y="1080" as="sourcePoint" />
            <mxPoint x="528.85" y="683.97" as="targetPoint" />
          </mxGeometry>
        </mxCell>
        <mxCell id="ZnTsEXRW03XCHpaP1GZI-85" value="1" style="resizable=0;html=1;whiteSpace=wrap;align=left;verticalAlign=bottom;" connectable="0" vertex="1" parent="ZnTsEXRW03XCHpaP1GZI-84">
          <mxGeometry x="-1" relative="1" as="geometry" />
        </mxCell>
        <mxCell id="ZnTsEXRW03XCHpaP1GZI-86" value="" style="endArrow=none;html=1;rounded=0;exitX=0.5;exitY=0;exitDx=0;exitDy=0;" edge="1" parent="1" source="ZnTsEXRW03XCHpaP1GZI-83" target="ZnTsEXRW03XCHpaP1GZI-75">
          <mxGeometry relative="1" as="geometry">
            <mxPoint x="140" y="880" as="sourcePoint" />
            <mxPoint x="430" y="760" as="targetPoint" />
          </mxGeometry>
        </mxCell>
        <mxCell id="ZnTsEXRW03XCHpaP1GZI-87" value="" style="resizable=0;html=1;whiteSpace=wrap;align=left;verticalAlign=bottom;" connectable="0" vertex="1" parent="ZnTsEXRW03XCHpaP1GZI-86">
          <mxGeometry x="-1" relative="1" as="geometry" />
        </mxCell>
        <mxCell id="ZnTsEXRW03XCHpaP1GZI-88" value="N" style="resizable=0;html=1;whiteSpace=wrap;align=right;verticalAlign=bottom;" connectable="0" vertex="1" parent="ZnTsEXRW03XCHpaP1GZI-86">
          <mxGeometry x="1" relative="1" as="geometry">
            <mxPoint x="-60" y="20" as="offset" />
          </mxGeometry>
        </mxCell>
      </root>
    </mxGraphModel>
  </diagram>
</mxfile>
